<svg xmlns="http://www.w3.org/2000/svg" xmlns:xlink="http://www.w3.org/1999/xlink" fill="none" version="1.1" width="17.13671875" height="16.99560546875" viewBox="0 0 17.13671875 16.99560546875"><defs><radialGradient cx="0" cy="0" r="1" gradientUnits="userSpaceOnUse" id="master_svg0_112_1985" gradientTransform="translate(10.11759462217725 5.155111440500804) rotate(116.51811496009348) scale(10.66154146903244 10.127952075537035)"><stop offset="0%" stop-color="#FFB455" stop-opacity="1"/><stop offset="100%" stop-color="#EB6A38" stop-opacity="1"/></radialGradient><radialGradient cx="0" cy="0" r="1" gradientUnits="userSpaceOnUse" id="master_svg1_112_1986" gradientTransform="translate(10.6337869735097 6.9745380815176645) rotate(129.57439652142205) scale(9.084758064352291 9.066180914004276)"><stop offset="59.40080285072327%" stop-color="#CC5934" stop-opacity="0"/><stop offset="100%" stop-color="#CC5934" stop-opacity="1"/></radialGradient><radialGradient cx="0" cy="0" r="1" gradientUnits="userSpaceOnUse" id="master_svg2_112_1987" gradientTransform="translate(3.405991655630828 5.30562903547667) rotate(12.38705459684492) scale(3.1606464243347108 10.684700926217085)"><stop offset="0%" stop-color="#D9957B" stop-opacity="1"/><stop offset="100%" stop-color="#FFBC94" stop-opacity="1"/></radialGradient><radialGradient cx="0" cy="0" r="1" gradientUnits="userSpaceOnUse" id="master_svg3_112_1988" gradientTransform="translate(12.948904840723458 8.86481586624592) rotate(140.05628312085923) scale(7.828779289283164 7.358157101330509)"><stop offset="0%" stop-color="#FFEAC1" stop-opacity="1"/><stop offset="100%" stop-color="#DE7C60" stop-opacity="1"/><stop offset="100%" stop-color="#DE7C60" stop-opacity="1"/><stop offset="100%" stop-color="#D4726B" stop-opacity="1"/></radialGradient><radialGradient cx="0" cy="0" r="1" gradientUnits="userSpaceOnUse" id="master_svg4_112_1989" gradientTransform="translate(14.316485651128232 6.746389125940141) rotate(128.8536851513415) scale(4.516431536266209 2.6393552580047963)"><stop offset="0%" stop-color="#FFE7C2" stop-opacity="1"/><stop offset="100%" stop-color="#FFE7C2" stop-opacity="0"/></radialGradient><radialGradient cx="0" cy="0" r="1" gradientUnits="userSpaceOnUse" id="master_svg5_112_1990" gradientTransform="translate(7.592589253907647 15.023067235946655) rotate(90.59168511277743) scale(2.0476084266011494 3.6794304961826008)"><stop offset="0%" stop-color="#C46867" stop-opacity="1"/><stop offset="100%" stop-color="#C46867" stop-opacity="0"/></radialGradient><radialGradient cx="0" cy="0" r="1" gradientUnits="userSpaceOnUse" id="master_svg6_112_1991" gradientTransform="translate(7.923455517569323 8.664261789676232) rotate(48.180380315458656) scale(0.9415822928393648 7.887663842721576)"><stop offset="0%" stop-color="#FFBD91" stop-opacity="1"/><stop offset="100%" stop-color="#FFBD91" stop-opacity="0"/></radialGradient><linearGradient x1="0.4657069742679596" y1="0.4063631296157837" x2="0.9652417302131653" y2="0.5811613202095032" id="master_svg7_112_1992"><stop offset="0%" stop-color="#E6AF22" stop-opacity="1"/><stop offset="100%" stop-color="#FFFB4B" stop-opacity="1"/></linearGradient><radialGradient cx="0" cy="0" r="1" gradientUnits="userSpaceOnUse" id="master_svg8_112_1993" gradientTransform="translate(11.532200813293457 4.425191640853882) rotate(131.51498831188857) scale(5.008420732661723 1.4098993024310826)"><stop offset="10.148999840021133%" stop-color="#F39D2B" stop-opacity="1"/><stop offset="100%" stop-color="#F39D2B" stop-opacity="0"/></radialGradient><radialGradient cx="0" cy="0" r="1" gradientUnits="userSpaceOnUse" id="master_svg9_112_1994" gradientTransform="translate(10.094386100769043 3.7048113346099854) rotate(146.54758006111567) scale(4.612327905747373 2.385762904779783)"><stop offset="0%" stop-color="#F19C20" stop-opacity="1"/><stop offset="100%" stop-color="#F19C20" stop-opacity="0"/></radialGradient><radialGradient cx="0" cy="0" r="1" gradientUnits="userSpaceOnUse" id="master_svga_112_1995" gradientTransform="translate(2.080671787261963 17.328487396240234) rotate(85.92272752058133) scale(2.973799800746682 11.581555546242603)"><stop offset="0%" stop-color="#D08E28" stop-opacity="1"/><stop offset="100%" stop-color="#D08E28" stop-opacity="0"/></radialGradient><radialGradient cx="0" cy="0" r="1" gradientUnits="userSpaceOnUse" id="master_svgb_112_1996" gradientTransform="translate(2.3026907444000244 14.679997444152832) rotate(149.84208288160391) scale(1.4550269482104379 0.3601359113394646)"><stop offset="0%" stop-color="#E9C441" stop-opacity="1"/><stop offset="100%" stop-color="#E9AF41" stop-opacity="0"/></radialGradient><radialGradient cx="0" cy="0" r="1" gradientUnits="userSpaceOnUse" id="master_svgc_112_1997" gradientTransform="translate(3.262575626373291 12.257282257080078) rotate(124.24642448417032) scale(2.347613408927312 0.6041960163008878)"><stop offset="0%" stop-color="#F1D338" stop-opacity="1"/><stop offset="100%" stop-color="#F1B338" stop-opacity="0"/></radialGradient><radialGradient cx="0" cy="0" r="1" gradientUnits="userSpaceOnUse" id="master_svgd_112_1998" gradientTransform="translate(12.540430068969727 4.415719985961914) rotate(126.93565127020133) scale(3.9761048750900323 1.1093879432712315)"><stop offset="15.361300110816956%" stop-color="#ECA53B" stop-opacity="1"/><stop offset="100%" stop-color="#ECA53B" stop-opacity="0"/></radialGradient><filter id="master_svge_113_1880" filterUnits="objectBoundingBox" color-interpolation-filters="sRGB" x="-2" y="-2" width="10.332713603973389" height="13.39093017578125"><feFlood flood-opacity="0" result="BackgroundImageFix"/><feBlend mode="normal" in="SourceGraphic" in2="BackgroundImageFix" result="shape"/><feGaussianBlur stdDeviation="0.5" result="effect1_foregroundBlur"/></filter><linearGradient x1="0.6378964185714722" y1="0.6082904934883118" x2="-0.07662919908761978" y2="1.0527549982070923" id="master_svgf_112_1999"><stop offset="0%" stop-color="#FFEF33" stop-opacity="1"/><stop offset="100%" stop-color="#FFEF33" stop-opacity="0"/></linearGradient></defs><g><g><ellipse cx="7.999981641769409" cy="8.995670795440674" rx="6.107944011688232" ry="6.12045955657959" fill="url(#master_svg0_112_1985)" fill-opacity="1"/></g><g><ellipse cx="7.999981641769409" cy="8.995670795440674" rx="6.107944011688232" ry="6.12045955657959" fill="url(#master_svg1_112_1986)" fill-opacity="1"/></g><g><path d="M1.910590410232544,8.514149805603028C2.693207410232544,8.224509805603027,4.027760410232544,7.521209805603028,5.2457404102325444,6.218559805603027C6.800400410232544,4.555919805603027,7.266460410232544,3.4893888056030273,7.437100410232544,2.9008398056030273C4.485560410232544,3.171044805603027,2.141154410232544,5.545369805603027,1.910590410232544,8.514149805603028Z" fill-rule="evenodd" fill="url(#master_svg2_112_1987)" fill-opacity="1"/></g><g><path d="M14.00161849822998,7.8529578395843505C13.30872849822998,9.086187839584351,12.37891849822998,10.45005783958435,11.09029849822998,11.90451783958435C10.05568849822998,13.072247839584351,8.52659849822998,14.13345783958435,6.9330184982299805,15.02310783958435C5.5072484982299805,14.77140783958435,4.251988498229981,14.02416783958435,3.3507184982299805,12.96525783958435C4.75227849822998,12.13605783958435,6.3088384982299806,10.94940783958435,7.9984284982299805,9.222737839584351C10.135798498229981,7.038407839584351,11.29687849822998,5.192267839584351,11.727948498229981,4.147107839584351C12.889088498229981,5.0448678395843505,13.71871849822998,6.352127839584351,14.00161849822998,7.8529578395843505Z" fill-rule="evenodd" fill="url(#master_svg3_112_1988)" fill-opacity="1"/></g><g><path d="M14.00161849822998,7.8529578395843505C13.30872849822998,9.086187839584351,12.37891849822998,10.45005783958435,11.09029849822998,11.90451783958435C10.05568849822998,13.072247839584351,8.52659849822998,14.13345783958435,6.9330184982299805,15.02310783958435C5.5072484982299805,14.77140783958435,4.251988498229981,14.02416783958435,3.3507184982299805,12.96525783958435C4.75227849822998,12.13605783958435,6.3088384982299806,10.94940783958435,7.9984284982299805,9.222737839584351C10.135798498229981,7.038407839584351,11.29687849822998,5.192267839584351,11.727948498229981,4.147107839584351C12.889088498229981,5.0448678395843505,13.71871849822998,6.352127839584351,14.00161849822998,7.8529578395843505Z" fill-rule="evenodd" fill="url(#master_svg4_112_1989)" fill-opacity="1"/></g><g><path d="M14.00161849822998,7.8529578395843505C13.30872849822998,9.086187839584351,12.37891849822998,10.45005783958435,11.09029849822998,11.90451783958435C10.05568849822998,13.072247839584351,8.52659849822998,14.13345783958435,6.9330184982299805,15.02310783958435C5.5072484982299805,14.77140783958435,4.251988498229981,14.02416783958435,3.3507184982299805,12.96525783958435C4.75227849822998,12.13605783958435,6.3088384982299806,10.94940783958435,7.9984284982299805,9.222737839584351C10.135798498229981,7.038407839584351,11.29687849822998,5.192267839584351,11.727948498229981,4.147107839584351C12.889088498229981,5.0448678395843505,13.71871849822998,6.352127839584351,14.00161849822998,7.8529578395843505Z" fill-rule="evenodd" fill="url(#master_svg5_112_1990)" fill-opacity="1"/></g><g><path d="M14.00161849822998,7.8529578395843505C13.30872849822998,9.086187839584351,12.37891849822998,10.45005783958435,11.09029849822998,11.90451783958435C10.05568849822998,13.072247839584351,8.52659849822998,14.13345783958435,6.9330184982299805,15.02310783958435C5.5072484982299805,14.77140783958435,4.251988498229981,14.02416783958435,3.3507184982299805,12.96525783958435C4.75227849822998,12.13605783958435,6.3088384982299806,10.94940783958435,7.9984284982299805,9.222737839584351C10.135798498229981,7.038407839584351,11.29687849822998,5.192267839584351,11.727948498229981,4.147107839584351C12.889088498229981,5.0448678395843505,13.71871849822998,6.352127839584351,14.00161849822998,7.8529578395843505Z" fill-rule="evenodd" fill="url(#master_svg6_112_1991)" fill-opacity="1"/></g><g><path d="M15.6087,1.48311146875C15.3024,1.12589746875,14.8909,1.00652776875,14.5371,0.99636424875C14.2013,0.98671638875,13.8668,1.07031446875,13.5729,1.17538446875C12.9807,1.38703746875,12.3147,1.77455846875,11.6705,2.20750546875C11.1804,2.53692546875,10.6742,2.91238546875,10.1838,3.29796546875C10.7881,3.52648546875,11.3469,3.84829546875,11.8424,4.24587546875C12.1146,4.04297546875,12.386,3.84923546875,12.6504,3.67150546875C13.2583,3.26298546875,13.7799,2.97297546875,14.1639,2.8357354687500003C14.1795,2.83015546875,14.1945,2.82497546875,14.2089,2.82015546875C14.1902,2.89409546875,14.1611,2.98755546875,14.1159,3.10411546875C13.9265,3.59252546875,13.5471,4.23059546875,13.0114,4.97191546875C11.9491,6.44210546875,10.4064,8.137245468749999,9.01315,9.54987546875C7.66248,10.91937546875,5.82371,12.55270546875,4.21166,13.73250546875C3.40062,14.32600546875,2.68231,14.77860546875,2.13168,15.03130546875C2.0143,15.08520546875,1.91269,15.12620546875,1.82619,15.15660546875C1.91076,14.92610546875,2.07089,14.61880546875,2.31609,14.22990546875C2.58176,13.80850546875,2.90913,13.34930546875,3.26491,12.85820546875C2.86285,12.35710546875,2.53794,11.79110546875,2.30825,11.17850546875C2.21068,11.31370546875,2.11176,11.45000546875,2.01219,11.58710546875L1.964,11.65340546875C1.56773,12.19920546875,1.16066,12.76200546875,0.82884,13.28830546875C0.506011,13.80030546875,0.203522,14.35500546875,0.071568,14.88170546875C-0.0644593,15.42480546875,-0.0600411,16.16350546875,0.570222,16.681105468749998C0.969265,17.00890546875,1.44861,17.02240546875,1.78994,16.97600546875C2.14406,16.927905468749998,2.51272,16.795405468749998,2.86437,16.63400546875C3.57413,16.30820546875,4.40362,15.77490546875,5.24926,15.15600546875C6.95041,13.91090546875,8.8601,12.21290546875,10.2644,10.78906546875C11.6804,9.35338546875,13.2961,7.58386546875,14.4363,6.00573546875C15.0019,5.22298546875,15.4848,4.44103546875,15.7557,3.74263546875C15.9959,3.12300546875,16.2145,2.18964546875,15.6087,1.48311146875Z" fill-rule="evenodd" fill="url(#master_svg7_112_1992)" fill-opacity="1"/></g><g><path d="M15.6087,1.48311146875C15.3024,1.12589746875,14.8909,1.00652776875,14.5371,0.99636424875C14.2013,0.98671638875,13.8668,1.07031446875,13.5729,1.17538446875C12.9807,1.38703746875,12.3147,1.77455846875,11.6705,2.20750546875C11.1804,2.53692546875,10.6742,2.91238546875,10.1838,3.29796546875C10.7881,3.52648546875,11.3469,3.84829546875,11.8424,4.24587546875C12.1146,4.04297546875,12.386,3.84923546875,12.6504,3.67150546875C13.2583,3.26298546875,13.7799,2.97297546875,14.1639,2.8357354687500003C14.1795,2.83015546875,14.1945,2.82497546875,14.2089,2.82015546875C14.1902,2.89409546875,14.1611,2.98755546875,14.1159,3.10411546875C13.9265,3.59252546875,13.5471,4.23059546875,13.0114,4.97191546875C11.9491,6.44210546875,10.4064,8.137245468749999,9.01315,9.54987546875C7.66248,10.91937546875,5.82371,12.55270546875,4.21166,13.73250546875C3.40062,14.32600546875,2.68231,14.77860546875,2.13168,15.03130546875C2.0143,15.08520546875,1.91269,15.12620546875,1.82619,15.15660546875C1.91076,14.92610546875,2.07089,14.61880546875,2.31609,14.22990546875C2.58176,13.80850546875,2.90913,13.34930546875,3.26491,12.85820546875C2.86285,12.35710546875,2.53794,11.79110546875,2.30825,11.17850546875C2.21068,11.31370546875,2.11176,11.45000546875,2.01219,11.58710546875L1.964,11.65340546875C1.56773,12.19920546875,1.16066,12.76200546875,0.82884,13.28830546875C0.506011,13.80030546875,0.203522,14.35500546875,0.071568,14.88170546875C-0.0644593,15.42480546875,-0.0600411,16.16350546875,0.570222,16.681105468749998C0.969265,17.00890546875,1.44861,17.02240546875,1.78994,16.97600546875C2.14406,16.927905468749998,2.51272,16.795405468749998,2.86437,16.63400546875C3.57413,16.30820546875,4.40362,15.77490546875,5.24926,15.15600546875C6.95041,13.91090546875,8.8601,12.21290546875,10.2644,10.78906546875C11.6804,9.35338546875,13.2961,7.58386546875,14.4363,6.00573546875C15.0019,5.22298546875,15.4848,4.44103546875,15.7557,3.74263546875C15.9959,3.12300546875,16.2145,2.18964546875,15.6087,1.48311146875Z" fill-rule="evenodd" fill="url(#master_svg8_112_1993)" fill-opacity="1"/></g><g><path d="M15.6087,1.48311146875C15.3024,1.12589746875,14.8909,1.00652776875,14.5371,0.99636424875C14.2013,0.98671638875,13.8668,1.07031446875,13.5729,1.17538446875C12.9807,1.38703746875,12.3147,1.77455846875,11.6705,2.20750546875C11.1804,2.53692546875,10.6742,2.91238546875,10.1838,3.29796546875C10.7881,3.52648546875,11.3469,3.84829546875,11.8424,4.24587546875C12.1146,4.04297546875,12.386,3.84923546875,12.6504,3.67150546875C13.2583,3.26298546875,13.7799,2.97297546875,14.1639,2.8357354687500003C14.1795,2.83015546875,14.1945,2.82497546875,14.2089,2.82015546875C14.1902,2.89409546875,14.1611,2.98755546875,14.1159,3.10411546875C13.9265,3.59252546875,13.5471,4.23059546875,13.0114,4.97191546875C11.9491,6.44210546875,10.4064,8.137245468749999,9.01315,9.54987546875C7.66248,10.91937546875,5.82371,12.55270546875,4.21166,13.73250546875C3.40062,14.32600546875,2.68231,14.77860546875,2.13168,15.03130546875C2.0143,15.08520546875,1.91269,15.12620546875,1.82619,15.15660546875C1.91076,14.92610546875,2.07089,14.61880546875,2.31609,14.22990546875C2.58176,13.80850546875,2.90913,13.34930546875,3.26491,12.85820546875C2.86285,12.35710546875,2.53794,11.79110546875,2.30825,11.17850546875C2.21068,11.31370546875,2.11176,11.45000546875,2.01219,11.58710546875L1.964,11.65340546875C1.56773,12.19920546875,1.16066,12.76200546875,0.82884,13.28830546875C0.506011,13.80030546875,0.203522,14.35500546875,0.071568,14.88170546875C-0.0644593,15.42480546875,-0.0600411,16.16350546875,0.570222,16.681105468749998C0.969265,17.00890546875,1.44861,17.02240546875,1.78994,16.97600546875C2.14406,16.927905468749998,2.51272,16.795405468749998,2.86437,16.63400546875C3.57413,16.30820546875,4.40362,15.77490546875,5.24926,15.15600546875C6.95041,13.91090546875,8.8601,12.21290546875,10.2644,10.78906546875C11.6804,9.35338546875,13.2961,7.58386546875,14.4363,6.00573546875C15.0019,5.22298546875,15.4848,4.44103546875,15.7557,3.74263546875C15.9959,3.12300546875,16.2145,2.18964546875,15.6087,1.48311146875Z" fill-rule="evenodd" fill="url(#master_svg9_112_1994)" fill-opacity="1"/></g><g><path d="M15.6087,1.48311146875C15.3024,1.12589746875,14.8909,1.00652776875,14.5371,0.99636424875C14.2013,0.98671638875,13.8668,1.07031446875,13.5729,1.17538446875C12.9807,1.38703746875,12.3147,1.77455846875,11.6705,2.20750546875C11.1804,2.53692546875,10.6742,2.91238546875,10.1838,3.29796546875C10.7881,3.52648546875,11.3469,3.84829546875,11.8424,4.24587546875C12.1146,4.04297546875,12.386,3.84923546875,12.6504,3.67150546875C13.2583,3.26298546875,13.7799,2.97297546875,14.1639,2.8357354687500003C14.1795,2.83015546875,14.1945,2.82497546875,14.2089,2.82015546875C14.1902,2.89409546875,14.1611,2.98755546875,14.1159,3.10411546875C13.9265,3.59252546875,13.5471,4.23059546875,13.0114,4.97191546875C11.9491,6.44210546875,10.4064,8.137245468749999,9.01315,9.54987546875C7.66248,10.91937546875,5.82371,12.55270546875,4.21166,13.73250546875C3.40062,14.32600546875,2.68231,14.77860546875,2.13168,15.03130546875C2.0143,15.08520546875,1.91269,15.12620546875,1.82619,15.15660546875C1.91076,14.92610546875,2.07089,14.61880546875,2.31609,14.22990546875C2.58176,13.80850546875,2.90913,13.34930546875,3.26491,12.85820546875C2.86285,12.35710546875,2.53794,11.79110546875,2.30825,11.17850546875C2.21068,11.31370546875,2.11176,11.45000546875,2.01219,11.58710546875L1.964,11.65340546875C1.56773,12.19920546875,1.16066,12.76200546875,0.82884,13.28830546875C0.506011,13.80030546875,0.203522,14.35500546875,0.071568,14.88170546875C-0.0644593,15.42480546875,-0.0600411,16.16350546875,0.570222,16.681105468749998C0.969265,17.00890546875,1.44861,17.02240546875,1.78994,16.97600546875C2.14406,16.927905468749998,2.51272,16.795405468749998,2.86437,16.63400546875C3.57413,16.30820546875,4.40362,15.77490546875,5.24926,15.15600546875C6.95041,13.91090546875,8.8601,12.21290546875,10.2644,10.78906546875C11.6804,9.35338546875,13.2961,7.58386546875,14.4363,6.00573546875C15.0019,5.22298546875,15.4848,4.44103546875,15.7557,3.74263546875C15.9959,3.12300546875,16.2145,2.18964546875,15.6087,1.48311146875Z" fill-rule="evenodd" fill="url(#master_svga_112_1995)" fill-opacity="1"/></g><g><path d="M15.6087,1.48311146875C15.3024,1.12589746875,14.8909,1.00652776875,14.5371,0.99636424875C14.2013,0.98671638875,13.8668,1.07031446875,13.5729,1.17538446875C12.9807,1.38703746875,12.3147,1.77455846875,11.6705,2.20750546875C11.1804,2.53692546875,10.6742,2.91238546875,10.1838,3.29796546875C10.7881,3.52648546875,11.3469,3.84829546875,11.8424,4.24587546875C12.1146,4.04297546875,12.386,3.84923546875,12.6504,3.67150546875C13.2583,3.26298546875,13.7799,2.97297546875,14.1639,2.8357354687500003C14.1795,2.83015546875,14.1945,2.82497546875,14.2089,2.82015546875C14.1902,2.89409546875,14.1611,2.98755546875,14.1159,3.10411546875C13.9265,3.59252546875,13.5471,4.23059546875,13.0114,4.97191546875C11.9491,6.44210546875,10.4064,8.137245468749999,9.01315,9.54987546875C7.66248,10.91937546875,5.82371,12.55270546875,4.21166,13.73250546875C3.40062,14.32600546875,2.68231,14.77860546875,2.13168,15.03130546875C2.0143,15.08520546875,1.91269,15.12620546875,1.82619,15.15660546875C1.91076,14.92610546875,2.07089,14.61880546875,2.31609,14.22990546875C2.58176,13.80850546875,2.90913,13.34930546875,3.26491,12.85820546875C2.86285,12.35710546875,2.53794,11.79110546875,2.30825,11.17850546875C2.21068,11.31370546875,2.11176,11.45000546875,2.01219,11.58710546875L1.964,11.65340546875C1.56773,12.19920546875,1.16066,12.76200546875,0.82884,13.28830546875C0.506011,13.80030546875,0.203522,14.35500546875,0.071568,14.88170546875C-0.0644593,15.42480546875,-0.0600411,16.16350546875,0.570222,16.681105468749998C0.969265,17.00890546875,1.44861,17.02240546875,1.78994,16.97600546875C2.14406,16.927905468749998,2.51272,16.795405468749998,2.86437,16.63400546875C3.57413,16.30820546875,4.40362,15.77490546875,5.24926,15.15600546875C6.95041,13.91090546875,8.8601,12.21290546875,10.2644,10.78906546875C11.6804,9.35338546875,13.2961,7.58386546875,14.4363,6.00573546875C15.0019,5.22298546875,15.4848,4.44103546875,15.7557,3.74263546875C15.9959,3.12300546875,16.2145,2.18964546875,15.6087,1.48311146875Z" fill-rule="evenodd" fill="url(#master_svgb_112_1996)" fill-opacity="1"/></g><g><path d="M15.6087,1.48311146875C15.3024,1.12589746875,14.8909,1.00652776875,14.5371,0.99636424875C14.2013,0.98671638875,13.8668,1.07031446875,13.5729,1.17538446875C12.9807,1.38703746875,12.3147,1.77455846875,11.6705,2.20750546875C11.1804,2.53692546875,10.6742,2.91238546875,10.1838,3.29796546875C10.7881,3.52648546875,11.3469,3.84829546875,11.8424,4.24587546875C12.1146,4.04297546875,12.386,3.84923546875,12.6504,3.67150546875C13.2583,3.26298546875,13.7799,2.97297546875,14.1639,2.8357354687500003C14.1795,2.83015546875,14.1945,2.82497546875,14.2089,2.82015546875C14.1902,2.89409546875,14.1611,2.98755546875,14.1159,3.10411546875C13.9265,3.59252546875,13.5471,4.23059546875,13.0114,4.97191546875C11.9491,6.44210546875,10.4064,8.137245468749999,9.01315,9.54987546875C7.66248,10.91937546875,5.82371,12.55270546875,4.21166,13.73250546875C3.40062,14.32600546875,2.68231,14.77860546875,2.13168,15.03130546875C2.0143,15.08520546875,1.91269,15.12620546875,1.82619,15.15660546875C1.91076,14.92610546875,2.07089,14.61880546875,2.31609,14.22990546875C2.58176,13.80850546875,2.90913,13.34930546875,3.26491,12.85820546875C2.86285,12.35710546875,2.53794,11.79110546875,2.30825,11.17850546875C2.21068,11.31370546875,2.11176,11.45000546875,2.01219,11.58710546875L1.964,11.65340546875C1.56773,12.19920546875,1.16066,12.76200546875,0.82884,13.28830546875C0.506011,13.80030546875,0.203522,14.35500546875,0.071568,14.88170546875C-0.0644593,15.42480546875,-0.0600411,16.16350546875,0.570222,16.681105468749998C0.969265,17.00890546875,1.44861,17.02240546875,1.78994,16.97600546875C2.14406,16.927905468749998,2.51272,16.795405468749998,2.86437,16.63400546875C3.57413,16.30820546875,4.40362,15.77490546875,5.24926,15.15600546875C6.95041,13.91090546875,8.8601,12.21290546875,10.2644,10.78906546875C11.6804,9.35338546875,13.2961,7.58386546875,14.4363,6.00573546875C15.0019,5.22298546875,15.4848,4.44103546875,15.7557,3.74263546875C15.9959,3.12300546875,16.2145,2.18964546875,15.6087,1.48311146875Z" fill-rule="evenodd" fill="url(#master_svgc_112_1997)" fill-opacity="1"/></g><g><path d="M15.6087,1.48311146875C15.3024,1.12589746875,14.8909,1.00652776875,14.5371,0.99636424875C14.2013,0.98671638875,13.8668,1.07031446875,13.5729,1.17538446875C12.9807,1.38703746875,12.3147,1.77455846875,11.6705,2.20750546875C11.1804,2.53692546875,10.6742,2.91238546875,10.1838,3.29796546875C10.7881,3.52648546875,11.3469,3.84829546875,11.8424,4.24587546875C12.1146,4.04297546875,12.386,3.84923546875,12.6504,3.67150546875C13.2583,3.26298546875,13.7799,2.97297546875,14.1639,2.8357354687500003C14.1795,2.83015546875,14.1945,2.82497546875,14.2089,2.82015546875C14.1902,2.89409546875,14.1611,2.98755546875,14.1159,3.10411546875C13.9265,3.59252546875,13.5471,4.23059546875,13.0114,4.97191546875C11.9491,6.44210546875,10.4064,8.137245468749999,9.01315,9.54987546875C7.66248,10.91937546875,5.82371,12.55270546875,4.21166,13.73250546875C3.40062,14.32600546875,2.68231,14.77860546875,2.13168,15.03130546875C2.0143,15.08520546875,1.91269,15.12620546875,1.82619,15.15660546875C1.91076,14.92610546875,2.07089,14.61880546875,2.31609,14.22990546875C2.58176,13.80850546875,2.90913,13.34930546875,3.26491,12.85820546875C2.86285,12.35710546875,2.53794,11.79110546875,2.30825,11.17850546875C2.21068,11.31370546875,2.11176,11.45000546875,2.01219,11.58710546875L1.964,11.65340546875C1.56773,12.19920546875,1.16066,12.76200546875,0.82884,13.28830546875C0.506011,13.80030546875,0.203522,14.35500546875,0.071568,14.88170546875C-0.0644593,15.42480546875,-0.0600411,16.16350546875,0.570222,16.681105468749998C0.969265,17.00890546875,1.44861,17.02240546875,1.78994,16.97600546875C2.14406,16.927905468749998,2.51272,16.795405468749998,2.86437,16.63400546875C3.57413,16.30820546875,4.40362,15.77490546875,5.24926,15.15600546875C6.95041,13.91090546875,8.8601,12.21290546875,10.2644,10.78906546875C11.6804,9.35338546875,13.2961,7.58386546875,14.4363,6.00573546875C15.0019,5.22298546875,15.4848,4.44103546875,15.7557,3.74263546875C15.9959,3.12300546875,16.2145,2.18964546875,15.6087,1.48311146875Z" fill-rule="evenodd" fill="url(#master_svgd_112_1998)" fill-opacity="1"/></g><g filter="url(#master_svge_113_1880)"><g><path d="M9.304231643676758,10.643695559825897L9.535567643676758,10.891035559825898C10.651991643676759,9.842905559825898,13.448051643676758,6.8591455598258975,14.997231643676757,4.419765559825898C15.644081643676758,3.401155559825897,15.751531643676758,2.632335559825897,15.536021643676758,2.123595559825897C15.316191643676758,1.6044675598258973,14.787411643676759,1.4194123598258972,14.333541643676757,1.5316358598258972C14.242871643676757,1.5540575598258972,14.187451643676757,1.6459205598258972,14.209851643676757,1.7368065598258973C14.232251643676758,1.8276935598258972,14.323931643676758,1.8831885598258973,14.414601643676757,1.8607665598258971C14.731391643676758,1.7824365598258973,15.078901643676758,1.9120505598258972,15.224641643676758,2.256043559825897C15.374721643676757,2.6104055598258973,15.337101643676757,3.253145559825897,14.711771643676759,4.237755559825898C13.183621643676759,6.644015559825897,10.409691643676759,9.605805559825898,9.304231643676758,10.643695559825897Z" fill="url(#master_svgf_112_1999)" fill-opacity="1"/></g></g></g></svg>